{
  "asset": {
    "generator": "glTF-Transform v4.4.0",
    "version": "2.0"
  },
  "accessors": [
    {
      "type": "SCALAR",
      "componentType": 5123,
      "count": 60,
      "normalized": false,
      "byteOffset": 0,
      "bufferView": 0
    },
    {
      "type": "SCALAR",
      "componentType": 5123,
      "count": 780,
      "normalized": false,
      "byteOffset": 120,
      "bufferView": 0
    },
    {
      "type": "VEC3",
      "componentType": 5120,
      "count": 161,
      "normalized": true,
      "byteOffset": 0,
      "bufferView": 1
    },
    {
      "type": "VEC3",
      "componentType": 5122,
      "count": 21,
      "max": [
        32767,
        2620,
        32767
      ],
      "min": [
        -32767,
        2620,
        -32767
      ],
      "normalized": true,
      "byteOffset": 0,
      "bufferView": 2
    },
    {
      "type": "VEC2",
      "componentType": 5123,
      "count": 21,
      "normalized": true,
      "byteOffset": 0,
      "bufferView": 3
    },
    {
      "type": "VEC3",
      "componentType": 5122,
      "count": 161,
      "max": [
        32767,
        2620,
        32767
      ],
      "min": [
        -32767,
        -2620,
        -32767
      ],
      "normalized": true,
      "byteOffset": 0,
      "bufferView": 4
    }
  ],
  "bufferViews": [
    {
      "buffer": 1,
      "byteOffset": 0,
      "byteLength": 1680,
      "target": 34963,
      "extensions": {
        "EXT_meshopt_compression": {
          "buffer": 0,
          "byteOffset": 0,
          "byteLength": 318,
          "mode": "TRIANGLES",
          "byteStride": 2,
          "count": 840
        }
      }
    },
    {
      "buffer": 1,
      "byteOffset": 1680,
      "byteLength": 644,
      "target": 34962,
      "byteStride": 4,
      "extensions": {
        "EXT_meshopt_compression": {
          "buffer": 0,
          "byteOffset": 320,
          "byteLength": 277,
          "mode": "ATTRIBUTES",
          "filter": "OCTAHEDRAL",
          "byteStride": 4,
          "count": 161
        }
      }
    },
    {
      "buffer": 1,
      "byteOffset": 2324,
      "byteLength": 168,
      "target": 34962,
      "byteStride": 8,
      "extensions": {
        "EXT_meshopt_compression": {
          "buffer": 0,
          "byteOffset": 600,
          "byteLength": 141,
          "mode": "ATTRIBUTES",
          "byteStride": 8,
          "count": 21
        }
      }
    },
    {
      "buffer": 1,
      "byteOffset": 2492,
      "byteLength": 84,
      "target": 34962,
      "byteStride": 4,
      "extensions": {
        "EXT_meshopt_compression": {
          "buffer": 0,
          "byteOffset": 744,
          "byteLength": 137,
          "mode": "ATTRIBUTES",
          "byteStride": 4,
          "count": 21
        }
      }
    },
    {
      "buffer": 1,
      "byteOffset": 2576,
      "byteLength": 1288,
      "target": 34962,
      "byteStride": 8,
      "extensions": {
        "EXT_meshopt_compression": {
          "buffer": 0,
          "byteOffset": 884,
          "byteLength": 785,
          "mode": "ATTRIBUTES",
          "byteStride": 8,
          "count": 161
        }
      }
    }
  ],
  "samplers": [
    {
      "magFilter": 9729,
      "minFilter": 9987,
      "wrapS": 33071,
      "wrapT": 33071
    }
  ],
  "textures": [
    {
      "sampler": 0,
      "extensions": {
        "EXT_texture_avif": {
          "source": 0
        }
      }
    }
  ],
  "images": [
    {
      "mimeType": "image/avif",
      "uri": "counter-6.avif"
    }
  ],
  "buffers": [
    {
      "uri": "buffer-ed8828d0327603ab.bin",
      "byteLength": 1672
    },
    {
      "byteLength": 3864,
      "extensions": {
        "EXT_meshopt_compression": {
          "fallback": true
        }
      }
    }
  ],
  "materials": [
    {
      "name": "Counter 6 face",
      "doubleSided": true,
      "pbrMetallicRoughness": {
        "roughnessFactor": 0.9,
        "metallicFactor": 0,
        "baseColorTexture": {
          "index": 0
        }
      },
      "extensions": {
        "KHR_materials_unlit": {}
      }
    },
    {
      "pbrMetallicRoughness": {
        "baseColorFactor": [
          0.9559733532482866,
          0.8713671191959567,
          0.7912979403281551,
          1
        ],
        "roughnessFactor": 0.85,
        "metallicFactor": 0.02
      }
    }
  ],
  "meshes": [
    {
      "primitives": [
        {
          "attributes": {
            "POSITION": 3,
            "TEXCOORD_0": 4
          },
          "mode": 4,
          "material": 0,
          "indices": 0
        },
        {
          "attributes": {
            "NORMAL": 2,
            "POSITION": 5
          },
          "mode": 4,
          "material": 1,
          "indices": 1
        }
      ]
    }
  ],
  "nodes": [
    {
      "scale": [
        0.012500000186264515,
        0.012500000186264515,
        0.012500000186264515
      ],
      "mesh": 0
    }
  ],
  "scenes": [
    {
      "name": "counter-6",
      "nodes": [
        0
      ]
    }
  ],
  "scene": 0,
  "extensionsUsed": [
    "EXT_meshopt_compression",
    "EXT_texture_avif",
    "KHR_materials_unlit",
    "KHR_mesh_quantization"
  ],
  "extensionsRequired": [
    "EXT_meshopt_compression",
    "EXT_texture_avif",
    "KHR_mesh_quantization"
  ]
}
