{
  "asset": {
    "generator": "glTF-Transform v4.4.0",
    "version": "2.0"
  },
  "accessors": [
    {
      "type": "SCALAR",
      "componentType": 5123,
      "count": 18,
      "normalized": false,
      "byteOffset": 0,
      "bufferView": 0
    },
    {
      "type": "SCALAR",
      "componentType": 5123,
      "count": 54,
      "normalized": false,
      "byteOffset": 36,
      "bufferView": 0
    },
    {
      "type": "VEC3",
      "componentType": 5120,
      "count": 22,
      "normalized": true,
      "byteOffset": 0,
      "bufferView": 1
    },
    {
      "type": "VEC3",
      "componentType": 5122,
      "count": 8,
      "max": [
        28379,
        728,
        32767
      ],
      "min": [
        -28379,
        728,
        -32767
      ],
      "normalized": true,
      "byteOffset": 0,
      "bufferView": 2
    },
    {
      "type": "VEC2",
      "componentType": 5123,
      "count": 8,
      "normalized": true,
      "byteOffset": 0,
      "bufferView": 3
    },
    {
      "type": "VEC3",
      "componentType": 5122,
      "count": 22,
      "max": [
        28379,
        728,
        32767
      ],
      "min": [
        -28379,
        -728,
        -32767
      ],
      "normalized": true,
      "byteOffset": 0,
      "bufferView": 4
    }
  ],
  "bufferViews": [
    {
      "buffer": 1,
      "byteOffset": 0,
      "byteLength": 144,
      "target": 34963,
      "extensions": {
        "EXT_meshopt_compression": {
          "buffer": 0,
          "byteOffset": 0,
          "byteLength": 42,
          "mode": "TRIANGLES",
          "byteStride": 2,
          "count": 72
        }
      }
    },
    {
      "buffer": 1,
      "byteOffset": 144,
      "byteLength": 88,
      "target": 34962,
      "byteStride": 4,
      "extensions": {
        "EXT_meshopt_compression": {
          "buffer": 0,
          "byteOffset": 44,
          "byteLength": 55,
          "mode": "ATTRIBUTES",
          "filter": "OCTAHEDRAL",
          "byteStride": 4,
          "count": 22
        }
      }
    },
    {
      "buffer": 1,
      "byteOffset": 232,
      "byteLength": 64,
      "target": 34962,
      "byteStride": 8,
      "extensions": {
        "EXT_meshopt_compression": {
          "buffer": 0,
          "byteOffset": 100,
          "byteLength": 80,
          "mode": "ATTRIBUTES",
          "byteStride": 8,
          "count": 8
        }
      }
    },
    {
      "buffer": 1,
      "byteOffset": 296,
      "byteLength": 32,
      "target": 34962,
      "byteStride": 4,
      "extensions": {
        "EXT_meshopt_compression": {
          "buffer": 0,
          "byteOffset": 180,
          "byteLength": 78,
          "mode": "ATTRIBUTES",
          "byteStride": 4,
          "count": 8
        }
      }
    },
    {
      "buffer": 1,
      "byteOffset": 328,
      "byteLength": 176,
      "target": 34962,
      "byteStride": 8,
      "extensions": {
        "EXT_meshopt_compression": {
          "buffer": 0,
          "byteOffset": 260,
          "byteLength": 139,
          "mode": "ATTRIBUTES",
          "byteStride": 8,
          "count": 22
        }
      }
    }
  ],
  "samplers": [
    {
      "magFilter": 9729,
      "minFilter": 9987,
      "wrapS": 33071,
      "wrapT": 33071
    }
  ],
  "textures": [
    {
      "sampler": 0,
      "extensions": {
        "EXT_texture_avif": {
          "source": 0
        }
      }
    }
  ],
  "images": [
    {
      "mimeType": "image/avif",
      "uri": "harbor-corn.avif"
    }
  ],
  "buffers": [
    {
      "uri": "buffer-dc515f5f09ab4830.bin",
      "byteLength": 400
    },
    {
      "byteLength": 504,
      "extensions": {
        "EXT_meshopt_compression": {
          "fallback": true
        }
      }
    }
  ],
  "materials": [
    {
      "name": "Harbor corn face side",
      "pbrMetallicRoughness": {
        "baseColorFactor": [
          0.11443537381770343,
          0.34191442489801843,
          0.3515325994898463,
          1
        ],
        "roughnessFactor": 0.85,
        "metallicFactor": 0.02
      }
    },
    {
      "name": "Harbor corn face",
      "doubleSided": true,
      "pbrMetallicRoughness": {
        "roughnessFactor": 0.9,
        "metallicFactor": 0,
        "baseColorTexture": {
          "index": 0
        }
      },
      "extensions": {
        "KHR_materials_unlit": {}
      }
    }
  ],
  "meshes": [
    {
      "primitives": [
        {
          "attributes": {
            "POSITION": 3,
            "TEXCOORD_0": 4
          },
          "mode": 4,
          "material": 1,
          "indices": 0
        },
        {
          "attributes": {
            "NORMAL": 2,
            "POSITION": 5
          },
          "mode": 4,
          "material": 0,
          "indices": 1
        }
      ]
    }
  ],
  "nodes": [
    {
      "scale": [
        0.04500000178813934,
        0.04500000178813934,
        0.04500000178813934
      ],
      "mesh": 0
    }
  ],
  "scenes": [
    {
      "name": "harbor-corn",
      "nodes": [
        0
      ]
    }
  ],
  "scene": 0,
  "extensionsUsed": [
    "EXT_meshopt_compression",
    "EXT_texture_avif",
    "KHR_materials_unlit",
    "KHR_mesh_quantization"
  ],
  "extensionsRequired": [
    "EXT_meshopt_compression",
    "EXT_texture_avif",
    "KHR_mesh_quantization"
  ]
}
