{
  "asset": {
    "generator": "glTF-Transform v4.4.0",
    "version": "2.0"
  },
  "accessors": [
    {
      "type": "SCALAR",
      "componentType": 5123,
      "count": 18,
      "normalized": false,
      "byteOffset": 0,
      "bufferView": 0
    },
    {
      "type": "VEC3",
      "componentType": 5120,
      "count": 10,
      "normalized": true,
      "byteOffset": 0,
      "bufferView": 1
    },
    {
      "type": "SCALAR",
      "componentType": 5123,
      "count": 30,
      "normalized": false,
      "byteOffset": 36,
      "bufferView": 0
    },
    {
      "type": "VEC3",
      "componentType": 5120,
      "count": 20,
      "normalized": true,
      "byteOffset": 0,
      "bufferView": 2
    },
    {
      "type": "VEC3",
      "componentType": 5122,
      "count": 10,
      "max": [
        32767,
        23406,
        28087
      ],
      "min": [
        -32767,
        -23406,
        -28087
      ],
      "normalized": true,
      "byteOffset": 0,
      "bufferView": 3
    },
    {
      "type": "VEC3",
      "componentType": 5122,
      "count": 20,
      "max": [
        32767,
        23406,
        28087
      ],
      "min": [
        -32767,
        -23406,
        -28087
      ],
      "normalized": true,
      "byteOffset": 0,
      "bufferView": 4
    }
  ],
  "bufferViews": [
    {
      "buffer": 1,
      "byteOffset": 0,
      "byteLength": 96,
      "target": 34963,
      "extensions": {
        "EXT_meshopt_compression": {
          "buffer": 0,
          "byteOffset": 0,
          "byteLength": 43,
          "mode": "TRIANGLES",
          "byteStride": 2,
          "count": 48
        }
      }
    },
    {
      "buffer": 1,
      "byteOffset": 96,
      "byteLength": 40,
      "target": 34962,
      "byteStride": 4,
      "extensions": {
        "EXT_meshopt_compression": {
          "buffer": 0,
          "byteOffset": 44,
          "byteLength": 42,
          "mode": "ATTRIBUTES",
          "filter": "OCTAHEDRAL",
          "byteStride": 4,
          "count": 10
        }
      }
    },
    {
      "buffer": 1,
      "byteOffset": 136,
      "byteLength": 80,
      "target": 34962,
      "byteStride": 4,
      "extensions": {
        "EXT_meshopt_compression": {
          "buffer": 0,
          "byteOffset": 88,
          "byteLength": 53,
          "mode": "ATTRIBUTES",
          "filter": "OCTAHEDRAL",
          "byteStride": 4,
          "count": 20
        }
      }
    },
    {
      "buffer": 1,
      "byteOffset": 216,
      "byteLength": 80,
      "target": 34962,
      "byteStride": 8,
      "extensions": {
        "EXT_meshopt_compression": {
          "buffer": 0,
          "byteOffset": 144,
          "byteLength": 85,
          "mode": "ATTRIBUTES",
          "byteStride": 8,
          "count": 10
        }
      }
    },
    {
      "buffer": 1,
      "byteOffset": 296,
      "byteLength": 160,
      "target": 34962,
      "byteStride": 8,
      "extensions": {
        "EXT_meshopt_compression": {
          "buffer": 0,
          "byteOffset": 232,
          "byteLength": 126,
          "mode": "ATTRIBUTES",
          "byteStride": 8,
          "count": 20
        }
      }
    }
  ],
  "buffers": [
    {
      "uri": "buffer-e3854f9025e8a5d4.bin",
      "byteLength": 360
    },
    {
      "byteLength": 456,
      "extensions": {
        "EXT_meshopt_compression": {
          "fallback": true
        }
      }
    }
  ],
  "materials": [
    {
      "pbrMetallicRoughness": {
        "roughnessFactor": 0.78,
        "metallicFactor": 0
      }
    },
    {
      "pbrMetallicRoughness": {
        "baseColorFactor": [
          0.7156935005005721,
          0.7156935005005721,
          0.7156935005005721,
          1
        ],
        "roughnessFactor": 0.88,
        "metallicFactor": 0
      }
    }
  ],
  "meshes": [
    {
      "primitives": [
        {
          "attributes": {
            "NORMAL": 1,
            "POSITION": 4
          },
          "mode": 4,
          "material": 0,
          "indices": 0
        },
        {
          "attributes": {
            "NORMAL": 3,
            "POSITION": 5
          },
          "mode": 4,
          "material": 1,
          "indices": 2
        }
      ]
    }
  ],
  "nodes": [
    {
      "scale": [
        0.007000000216066837,
        0.007000000216066837,
        0.007000000216066837
      ],
      "mesh": 0
    }
  ],
  "scenes": [
    {
      "name": "house",
      "nodes": [
        0
      ]
    }
  ],
  "scene": 0,
  "extensionsUsed": [
    "EXT_meshopt_compression",
    "KHR_mesh_quantization"
  ],
  "extensionsRequired": [
    "EXT_meshopt_compression",
    "KHR_mesh_quantization"
  ]
}
