{
  "asset": {
    "generator": "glTF-Transform v4.4.0",
    "version": "2.0"
  },
  "accessors": [
    {
      "type": "SCALAR",
      "componentType": 5123,
      "count": 18,
      "normalized": false,
      "byteOffset": 0,
      "bufferView": 0
    },
    {
      "type": "VEC2",
      "componentType": 5126,
      "count": 10,
      "normalized": false,
      "byteOffset": 0,
      "bufferView": 1
    },
    {
      "type": "VEC3",
      "componentType": 5120,
      "count": 10,
      "normalized": true,
      "byteOffset": 0,
      "bufferView": 2
    },
    {
      "type": "SCALAR",
      "componentType": 5123,
      "count": 30,
      "normalized": false,
      "byteOffset": 36,
      "bufferView": 0
    },
    {
      "type": "VEC2",
      "componentType": 5126,
      "count": 20,
      "normalized": false,
      "byteOffset": 0,
      "bufferView": 3
    },
    {
      "type": "VEC3",
      "componentType": 5120,
      "count": 20,
      "normalized": true,
      "byteOffset": 0,
      "bufferView": 4
    },
    {
      "type": "VEC3",
      "componentType": 5122,
      "count": 10,
      "max": [
        32767,
        23406,
        28087
      ],
      "min": [
        -32767,
        -23406,
        -28087
      ],
      "normalized": true,
      "byteOffset": 0,
      "bufferView": 5
    },
    {
      "type": "VEC3",
      "componentType": 5122,
      "count": 20,
      "max": [
        32767,
        23406,
        28087
      ],
      "min": [
        -32767,
        -23406,
        -28087
      ],
      "normalized": true,
      "byteOffset": 0,
      "bufferView": 6
    }
  ],
  "bufferViews": [
    {
      "buffer": 1,
      "byteOffset": 0,
      "byteLength": 96,
      "target": 34963,
      "extensions": {
        "EXT_meshopt_compression": {
          "buffer": 0,
          "byteOffset": 0,
          "byteLength": 43,
          "mode": "TRIANGLES",
          "byteStride": 2,
          "count": 48
        }
      }
    },
    {
      "buffer": 1,
      "byteOffset": 96,
      "byteLength": 80,
      "target": 34962,
      "byteStride": 8,
      "extensions": {
        "EXT_meshopt_compression": {
          "buffer": 0,
          "byteOffset": 44,
          "byteLength": 120,
          "mode": "ATTRIBUTES",
          "byteStride": 8,
          "count": 10
        }
      }
    },
    {
      "buffer": 1,
      "byteOffset": 176,
      "byteLength": 40,
      "target": 34962,
      "byteStride": 4,
      "extensions": {
        "EXT_meshopt_compression": {
          "buffer": 0,
          "byteOffset": 164,
          "byteLength": 42,
          "mode": "ATTRIBUTES",
          "filter": "OCTAHEDRAL",
          "byteStride": 4,
          "count": 10
        }
      }
    },
    {
      "buffer": 1,
      "byteOffset": 216,
      "byteLength": 160,
      "target": 34962,
      "byteStride": 8,
      "extensions": {
        "EXT_meshopt_compression": {
          "buffer": 0,
          "byteOffset": 208,
          "byteLength": 151,
          "mode": "ATTRIBUTES",
          "byteStride": 8,
          "count": 20
        }
      }
    },
    {
      "buffer": 1,
      "byteOffset": 376,
      "byteLength": 80,
      "target": 34962,
      "byteStride": 4,
      "extensions": {
        "EXT_meshopt_compression": {
          "buffer": 0,
          "byteOffset": 360,
          "byteLength": 53,
          "mode": "ATTRIBUTES",
          "filter": "OCTAHEDRAL",
          "byteStride": 4,
          "count": 20
        }
      }
    },
    {
      "buffer": 1,
      "byteOffset": 456,
      "byteLength": 80,
      "target": 34962,
      "byteStride": 8,
      "extensions": {
        "EXT_meshopt_compression": {
          "buffer": 0,
          "byteOffset": 416,
          "byteLength": 85,
          "mode": "ATTRIBUTES",
          "byteStride": 8,
          "count": 10
        }
      }
    },
    {
      "buffer": 1,
      "byteOffset": 536,
      "byteLength": 160,
      "target": 34962,
      "byteStride": 8,
      "extensions": {
        "EXT_meshopt_compression": {
          "buffer": 0,
          "byteOffset": 504,
          "byteLength": 126,
          "mode": "ATTRIBUTES",
          "byteStride": 8,
          "count": 20
        }
      }
    }
  ],
  "buffers": [
    {
      "uri": "buffer-83223fc6ce26912f.bin",
      "byteLength": 632
    },
    {
      "byteLength": 696,
      "extensions": {
        "EXT_meshopt_compression": {
          "fallback": true
        }
      }
    }
  ],
  "materials": [
    {
      "name": "Molded plastic face",
      "pbrMetallicRoughness": {
        "roughnessFactor": 0.68,
        "metallicFactor": 0
      },
      "normalTexture": {
        "index": 0,
        "scale": 0.9
      }
    },
    {
      "name": "Molded plastic side",
      "pbrMetallicRoughness": {
        "baseColorFactor": [
          0.7156935005005721,
          0.7156935005005721,
          0.7156935005005721,
          1
        ],
        "roughnessFactor": 0.72,
        "metallicFactor": 0
      },
      "normalTexture": {
        "index": 0,
        "scale": 0.9
      }
    }
  ],
  "meshes": [
    {
      "primitives": [
        {
          "attributes": {
            "TEXCOORD_0": 1,
            "NORMAL": 2,
            "POSITION": 6
          },
          "mode": 4,
          "material": 0,
          "indices": 0
        },
        {
          "attributes": {
            "TEXCOORD_0": 4,
            "NORMAL": 5,
            "POSITION": 7
          },
          "mode": 4,
          "material": 1,
          "indices": 3
        }
      ]
    }
  ],
  "nodes": [
    {
      "scale": [
        0.007000000216066837,
        0.007000000216066837,
        0.007000000216066837
      ],
      "mesh": 0
    }
  ],
  "scenes": [
    {
      "name": "house",
      "nodes": [
        0
      ]
    }
  ],
  "scene": 0,
  "extensionsUsed": [
    "EXT_meshopt_compression",
    "EXT_texture_avif",
    "KHR_mesh_quantization"
  ],
  "extensionsRequired": [
    "EXT_meshopt_compression",
    "EXT_texture_avif",
    "KHR_mesh_quantization"
  ],
  "images": [
    {
      "mimeType": "image/avif",
      "uri": "molded-plastic-normal.avif"
    }
  ],
  "textures": [
    {
      "sampler": 0,
      "extensions": {
        "EXT_texture_avif": {
          "source": 0
        }
      }
    }
  ],
  "samplers": [
    {
      "magFilter": 9729,
      "minFilter": 9987,
      "wrapS": 10497,
      "wrapT": 10497
    }
  ]
}
