{
  "asset": {
    "generator": "glTF-Transform v4.4.0",
    "version": "2.0"
  },
  "accessors": [
    {
      "type": "SCALAR",
      "componentType": 5123,
      "count": 12,
      "normalized": false,
      "byteOffset": 0,
      "bufferView": 0
    },
    {
      "type": "VEC3",
      "componentType": 5120,
      "count": 8,
      "normalized": true,
      "byteOffset": 0,
      "bufferView": 1
    },
    {
      "type": "SCALAR",
      "componentType": 5123,
      "count": 1152,
      "normalized": false,
      "byteOffset": 24,
      "bufferView": 0
    },
    {
      "type": "VEC3",
      "componentType": 5120,
      "count": 252,
      "normalized": true,
      "byteOffset": 0,
      "bufferView": 2
    },
    {
      "type": "VEC3",
      "componentType": 5122,
      "count": 8,
      "max": [
        22886,
        520,
        32767
      ],
      "min": [
        -22886,
        -520,
        -32767
      ],
      "normalized": true,
      "byteOffset": 0,
      "bufferView": 3
    },
    {
      "type": "VEC2",
      "componentType": 5123,
      "count": 8,
      "normalized": true,
      "byteOffset": 0,
      "bufferView": 4
    },
    {
      "type": "VEC3",
      "componentType": 5122,
      "count": 252,
      "max": [
        22886,
        520,
        32767
      ],
      "min": [
        -22886,
        -520,
        -32767
      ],
      "normalized": true,
      "byteOffset": 0,
      "bufferView": 5
    }
  ],
  "bufferViews": [
    {
      "buffer": 1,
      "byteOffset": 0,
      "byteLength": 2328,
      "target": 34963,
      "extensions": {
        "EXT_meshopt_compression": {
          "buffer": 0,
          "byteOffset": 0,
          "byteLength": 438,
          "mode": "TRIANGLES",
          "byteStride": 2,
          "count": 1164
        }
      }
    },
    {
      "buffer": 1,
      "byteOffset": 2328,
      "byteLength": 32,
      "target": 34962,
      "byteStride": 4,
      "extensions": {
        "EXT_meshopt_compression": {
          "buffer": 0,
          "byteOffset": 440,
          "byteLength": 42,
          "mode": "ATTRIBUTES",
          "filter": "OCTAHEDRAL",
          "byteStride": 4,
          "count": 8
        }
      }
    },
    {
      "buffer": 1,
      "byteOffset": 2360,
      "byteLength": 1008,
      "target": 34962,
      "byteStride": 4,
      "extensions": {
        "EXT_meshopt_compression": {
          "buffer": 0,
          "byteOffset": 484,
          "byteLength": 324,
          "mode": "ATTRIBUTES",
          "filter": "OCTAHEDRAL",
          "byteStride": 4,
          "count": 252
        }
      }
    },
    {
      "buffer": 1,
      "byteOffset": 3368,
      "byteLength": 64,
      "target": 34962,
      "byteStride": 8,
      "extensions": {
        "EXT_meshopt_compression": {
          "buffer": 0,
          "byteOffset": 808,
          "byteLength": 77,
          "mode": "ATTRIBUTES",
          "byteStride": 8,
          "count": 8
        }
      }
    },
    {
      "buffer": 1,
      "byteOffset": 3432,
      "byteLength": 32,
      "target": 34962,
      "byteStride": 4,
      "extensions": {
        "EXT_meshopt_compression": {
          "buffer": 0,
          "byteOffset": 888,
          "byteLength": 53,
          "mode": "ATTRIBUTES",
          "byteStride": 4,
          "count": 8
        }
      }
    },
    {
      "buffer": 1,
      "byteOffset": 3464,
      "byteLength": 2016,
      "target": 34962,
      "byteStride": 8,
      "extensions": {
        "EXT_meshopt_compression": {
          "buffer": 0,
          "byteOffset": 944,
          "byteLength": 707,
          "mode": "ATTRIBUTES",
          "byteStride": 8,
          "count": 252
        }
      }
    }
  ],
  "samplers": [
    {
      "magFilter": 9729,
      "minFilter": 9987,
      "wrapS": 33071,
      "wrapT": 33071
    }
  ],
  "textures": [
    {
      "sampler": 0,
      "extensions": {
        "EXT_texture_avif": {
          "source": 0
        }
      }
    }
  ],
  "images": [
    {
      "mimeType": "image/avif",
      "uri": "longest-road-card.avif"
    }
  ],
  "buffers": [
    {
      "uri": "buffer-090269bc7a089b21.bin",
      "byteLength": 1652
    },
    {
      "byteLength": 5480,
      "extensions": {
        "EXT_meshopt_compression": {
          "fallback": true
        }
      }
    }
  ],
  "materials": [
    {
      "name": "Award card longest-road face front",
      "doubleSided": true,
      "pbrMetallicRoughness": {
        "roughnessFactor": 0.8,
        "metallicFactor": 0,
        "baseColorTexture": {
          "index": 0
        }
      }
    },
    {
      "name": "Award card longest-road face edge",
      "doubleSided": true,
      "pbrMetallicRoughness": {
        "baseColorFactor": [
          0.9559733532482866,
          0.8713671191959567,
          0.7912979403281551,
          1
        ],
        "roughnessFactor": 0.86,
        "metallicFactor": 0
      }
    }
  ],
  "meshes": [
    {
      "primitives": [
        {
          "attributes": {
            "NORMAL": 1,
            "POSITION": 4,
            "TEXCOORD_0": 5
          },
          "mode": 4,
          "material": 0,
          "indices": 0
        },
        {
          "attributes": {
            "NORMAL": 3,
            "POSITION": 6
          },
          "mode": 4,
          "material": 1,
          "indices": 2
        }
      ]
    }
  ],
  "nodes": [
    {
      "scale": [
        0.06300000101327896,
        0.06300000101327896,
        0.06300000101327896
      ],
      "mesh": 0
    }
  ],
  "scenes": [
    {
      "name": "longest-road-card",
      "nodes": [
        0
      ]
    }
  ],
  "scene": 0,
  "extensionsUsed": [
    "EXT_meshopt_compression",
    "EXT_texture_avif",
    "KHR_mesh_quantization"
  ],
  "extensionsRequired": [
    "EXT_meshopt_compression",
    "EXT_texture_avif",
    "KHR_mesh_quantization"
  ]
}
