{
  "asset": {
    "generator": "glTF-Transform v4.4.0",
    "version": "2.0"
  },
  "accessors": [
    {
      "type": "SCALAR",
      "componentType": 5123,
      "count": 6,
      "normalized": false,
      "byteOffset": 0,
      "bufferView": 0
    },
    {
      "type": "VEC3",
      "componentType": 5120,
      "count": 4,
      "normalized": true,
      "byteOffset": 0,
      "bufferView": 1
    },
    {
      "type": "VEC3",
      "componentType": 5120,
      "count": 4,
      "normalized": true,
      "byteOffset": 0,
      "bufferView": 2
    },
    {
      "type": "SCALAR",
      "componentType": 5123,
      "count": 1152,
      "normalized": false,
      "byteOffset": 12,
      "bufferView": 0
    },
    {
      "type": "VEC3",
      "componentType": 5120,
      "count": 252,
      "normalized": true,
      "byteOffset": 0,
      "bufferView": 3
    },
    {
      "type": "VEC3",
      "componentType": 5122,
      "count": 4,
      "max": [
        23458,
        224,
        32767
      ],
      "min": [
        -23458,
        224,
        -32767
      ],
      "normalized": true,
      "byteOffset": 0,
      "bufferView": 4
    },
    {
      "type": "VEC2",
      "componentType": 5123,
      "count": 4,
      "normalized": true,
      "byteOffset": 0,
      "bufferView": 5
    },
    {
      "type": "VEC3",
      "componentType": 5122,
      "count": 4,
      "max": [
        23458,
        -224,
        32767
      ],
      "min": [
        -23458,
        -224,
        -32767
      ],
      "normalized": true,
      "byteOffset": 0,
      "bufferView": 6
    },
    {
      "type": "VEC3",
      "componentType": 5122,
      "count": 252,
      "max": [
        23458,
        224,
        32767
      ],
      "min": [
        -23458,
        -224,
        -32767
      ],
      "normalized": true,
      "byteOffset": 0,
      "bufferView": 7
    }
  ],
  "bufferViews": [
    {
      "buffer": 1,
      "byteOffset": 0,
      "byteLength": 2316,
      "target": 34963,
      "extensions": {
        "EXT_meshopt_compression": {
          "buffer": 0,
          "byteOffset": 0,
          "byteLength": 436,
          "mode": "TRIANGLES",
          "byteStride": 2,
          "count": 1158
        }
      }
    },
    {
      "buffer": 1,
      "byteOffset": 2316,
      "byteLength": 16,
      "target": 34962,
      "byteStride": 4,
      "extensions": {
        "EXT_meshopt_compression": {
          "buffer": 0,
          "byteOffset": 436,
          "byteLength": 37,
          "mode": "ATTRIBUTES",
          "filter": "OCTAHEDRAL",
          "byteStride": 4,
          "count": 4
        }
      }
    },
    {
      "buffer": 1,
      "byteOffset": 2332,
      "byteLength": 16,
      "target": 34962,
      "byteStride": 4,
      "extensions": {
        "EXT_meshopt_compression": {
          "buffer": 0,
          "byteOffset": 476,
          "byteLength": 37,
          "mode": "ATTRIBUTES",
          "filter": "OCTAHEDRAL",
          "byteStride": 4,
          "count": 4
        }
      }
    },
    {
      "buffer": 1,
      "byteOffset": 2348,
      "byteLength": 1008,
      "target": 34962,
      "byteStride": 4,
      "extensions": {
        "EXT_meshopt_compression": {
          "buffer": 0,
          "byteOffset": 516,
          "byteLength": 324,
          "mode": "ATTRIBUTES",
          "filter": "OCTAHEDRAL",
          "byteStride": 4,
          "count": 252
        }
      }
    },
    {
      "buffer": 1,
      "byteOffset": 3356,
      "byteLength": 32,
      "target": 34962,
      "byteStride": 8,
      "extensions": {
        "EXT_meshopt_compression": {
          "buffer": 0,
          "byteOffset": 840,
          "byteLength": 62,
          "mode": "ATTRIBUTES",
          "byteStride": 8,
          "count": 4
        }
      }
    },
    {
      "buffer": 1,
      "byteOffset": 3388,
      "byteLength": 16,
      "target": 34962,
      "byteStride": 4,
      "extensions": {
        "EXT_meshopt_compression": {
          "buffer": 0,
          "byteOffset": 904,
          "byteLength": 53,
          "mode": "ATTRIBUTES",
          "byteStride": 4,
          "count": 4
        }
      }
    },
    {
      "buffer": 1,
      "byteOffset": 3404,
      "byteLength": 32,
      "target": 34962,
      "byteStride": 8,
      "extensions": {
        "EXT_meshopt_compression": {
          "buffer": 0,
          "byteOffset": 960,
          "byteLength": 62,
          "mode": "ATTRIBUTES",
          "byteStride": 8,
          "count": 4
        }
      }
    },
    {
      "buffer": 1,
      "byteOffset": 3436,
      "byteLength": 2016,
      "target": 34962,
      "byteStride": 8,
      "extensions": {
        "EXT_meshopt_compression": {
          "buffer": 0,
          "byteOffset": 1024,
          "byteLength": 676,
          "mode": "ATTRIBUTES",
          "byteStride": 8,
          "count": 252
        }
      }
    }
  ],
  "samplers": [
    {
      "magFilter": 9729,
      "minFilter": 9987,
      "wrapS": 33071,
      "wrapT": 33071
    }
  ],
  "textures": [
    {
      "sampler": 0,
      "extensions": {
        "EXT_texture_avif": {
          "source": 0
        }
      }
    },
    {
      "sampler": 0,
      "extensions": {
        "EXT_texture_avif": {
          "source": 1
        }
      }
    }
  ],
  "images": [
    {
      "mimeType": "image/avif",
      "uri": "resource-card-front.avif"
    },
    {
      "mimeType": "image/avif",
      "uri": "resource-card-ore.avif"
    }
  ],
  "buffers": [
    {
      "uri": "buffer-65f85b6318cd0fbe.bin",
      "byteLength": 1700
    },
    {
      "byteLength": 5452,
      "extensions": {
        "EXT_meshopt_compression": {
          "fallback": true
        }
      }
    }
  ],
  "materials": [
    {
      "name": "Resource card ore face front",
      "doubleSided": true,
      "pbrMetallicRoughness": {
        "roughnessFactor": 0.8,
        "metallicFactor": 0,
        "baseColorTexture": {
          "index": 0
        }
      }
    },
    {
      "name": "Resource card ore face back",
      "doubleSided": true,
      "pbrMetallicRoughness": {
        "roughnessFactor": 0.8,
        "metallicFactor": 0,
        "baseColorTexture": {
          "index": 1
        }
      }
    },
    {
      "name": "Resource card ore face edge",
      "doubleSided": true,
      "pbrMetallicRoughness": {
        "baseColorFactor": [
          0.9559733532482866,
          0.8713671191959567,
          0.7912979403281551,
          1
        ],
        "roughnessFactor": 0.86,
        "metallicFactor": 0
      }
    }
  ],
  "meshes": [
    {
      "primitives": [
        {
          "attributes": {
            "NORMAL": 1,
            "POSITION": 5,
            "TEXCOORD_0": 6
          },
          "mode": 4,
          "material": 0,
          "indices": 0
        },
        {
          "attributes": {
            "NORMAL": 2,
            "POSITION": 7,
            "TEXCOORD_0": 6
          },
          "mode": 4,
          "material": 1,
          "indices": 0
        },
        {
          "attributes": {
            "NORMAL": 4,
            "POSITION": 8
          },
          "mode": 4,
          "material": 2,
          "indices": 3
        }
      ]
    }
  ],
  "nodes": [
    {
      "scale": [
        0.04399999976158142,
        0.04399999976158142,
        0.04399999976158142
      ],
      "mesh": 0
    }
  ],
  "scenes": [
    {
      "name": "resource-card-ore",
      "nodes": [
        0
      ]
    }
  ],
  "scene": 0,
  "extensionsUsed": [
    "EXT_meshopt_compression",
    "EXT_texture_avif",
    "KHR_mesh_quantization"
  ],
  "extensionsRequired": [
    "EXT_meshopt_compression",
    "EXT_texture_avif",
    "KHR_mesh_quantization"
  ]
}
