{
  "asset": {
    "generator": "glTF-Transform v4.4.0",
    "version": "2.0"
  },
  "accessors": [
    {
      "type": "SCALAR",
      "componentType": 5123,
      "count": 6,
      "normalized": false,
      "byteOffset": 0,
      "bufferView": 0
    },
    {
      "type": "VEC3",
      "componentType": 5120,
      "count": 4,
      "normalized": true,
      "byteOffset": 0,
      "bufferView": 1
    },
    {
      "type": "VEC2",
      "componentType": 5126,
      "count": 4,
      "normalized": false,
      "byteOffset": 0,
      "bufferView": 2
    },
    {
      "type": "SCALAR",
      "componentType": 5123,
      "count": 12,
      "normalized": false,
      "byteOffset": 12,
      "bufferView": 0
    },
    {
      "type": "VEC3",
      "componentType": 5120,
      "count": 8,
      "normalized": true,
      "byteOffset": 0,
      "bufferView": 3
    },
    {
      "type": "VEC2",
      "componentType": 5126,
      "count": 8,
      "normalized": false,
      "byteOffset": 0,
      "bufferView": 4
    },
    {
      "type": "SCALAR",
      "componentType": 5123,
      "count": 18,
      "normalized": false,
      "byteOffset": 36,
      "bufferView": 0
    },
    {
      "type": "VEC3",
      "componentType": 5120,
      "count": 12,
      "normalized": true,
      "byteOffset": 0,
      "bufferView": 5
    },
    {
      "type": "VEC2",
      "componentType": 5126,
      "count": 12,
      "normalized": false,
      "byteOffset": 0,
      "bufferView": 6
    },
    {
      "type": "VEC3",
      "componentType": 5122,
      "count": 4,
      "max": [
        32767,
        5244,
        5244
      ],
      "min": [
        -32767,
        5244,
        -5244
      ],
      "normalized": true,
      "byteOffset": 0,
      "bufferView": 7
    },
    {
      "type": "VEC3",
      "componentType": 5122,
      "count": 8,
      "max": [
        32767,
        5244,
        5244
      ],
      "min": [
        -32767,
        -5244,
        -5244
      ],
      "normalized": true,
      "byteOffset": 0,
      "bufferView": 8
    },
    {
      "type": "VEC3",
      "componentType": 5122,
      "count": 12,
      "max": [
        32767,
        5244,
        5244
      ],
      "min": [
        -32767,
        -5244,
        -5244
      ],
      "normalized": true,
      "byteOffset": 0,
      "bufferView": 9
    }
  ],
  "bufferViews": [
    {
      "buffer": 1,
      "byteOffset": 0,
      "byteLength": 72,
      "target": 34963,
      "extensions": {
        "EXT_meshopt_compression": {
          "buffer": 0,
          "byteOffset": 0,
          "byteLength": 31,
          "mode": "TRIANGLES",
          "byteStride": 2,
          "count": 36
        }
      }
    },
    {
      "buffer": 1,
      "byteOffset": 72,
      "byteLength": 16,
      "target": 34962,
      "byteStride": 4,
      "extensions": {
        "EXT_meshopt_compression": {
          "buffer": 0,
          "byteOffset": 32,
          "byteLength": 37,
          "mode": "ATTRIBUTES",
          "filter": "OCTAHEDRAL",
          "byteStride": 4,
          "count": 4
        }
      }
    },
    {
      "buffer": 1,
      "byteOffset": 88,
      "byteLength": 32,
      "target": 34962,
      "byteStride": 8,
      "extensions": {
        "EXT_meshopt_compression": {
          "buffer": 0,
          "byteOffset": 72,
          "byteLength": 53,
          "mode": "ATTRIBUTES",
          "byteStride": 8,
          "count": 4
        }
      }
    },
    {
      "buffer": 1,
      "byteOffset": 120,
      "byteLength": 32,
      "target": 34962,
      "byteStride": 4,
      "extensions": {
        "EXT_meshopt_compression": {
          "buffer": 0,
          "byteOffset": 128,
          "byteLength": 42,
          "mode": "ATTRIBUTES",
          "filter": "OCTAHEDRAL",
          "byteStride": 4,
          "count": 8
        }
      }
    },
    {
      "buffer": 1,
      "byteOffset": 152,
      "byteLength": 64,
      "target": 34962,
      "byteStride": 8,
      "extensions": {
        "EXT_meshopt_compression": {
          "buffer": 0,
          "byteOffset": 172,
          "byteLength": 58,
          "mode": "ATTRIBUTES",
          "byteStride": 8,
          "count": 8
        }
      }
    },
    {
      "buffer": 1,
      "byteOffset": 216,
      "byteLength": 48,
      "target": 34962,
      "byteStride": 4,
      "extensions": {
        "EXT_meshopt_compression": {
          "buffer": 0,
          "byteOffset": 232,
          "byteLength": 48,
          "mode": "ATTRIBUTES",
          "filter": "OCTAHEDRAL",
          "byteStride": 4,
          "count": 12
        }
      }
    },
    {
      "buffer": 1,
      "byteOffset": 264,
      "byteLength": 96,
      "target": 34962,
      "byteStride": 8,
      "extensions": {
        "EXT_meshopt_compression": {
          "buffer": 0,
          "byteOffset": 280,
          "byteLength": 64,
          "mode": "ATTRIBUTES",
          "byteStride": 8,
          "count": 12
        }
      }
    },
    {
      "buffer": 1,
      "byteOffset": 360,
      "byteLength": 32,
      "target": 34962,
      "byteStride": 8,
      "extensions": {
        "EXT_meshopt_compression": {
          "buffer": 0,
          "byteOffset": 344,
          "byteLength": 64,
          "mode": "ATTRIBUTES",
          "byteStride": 8,
          "count": 4
        }
      }
    },
    {
      "buffer": 1,
      "byteOffset": 392,
      "byteLength": 64,
      "target": 34962,
      "byteStride": 8,
      "extensions": {
        "EXT_meshopt_compression": {
          "buffer": 0,
          "byteOffset": 408,
          "byteLength": 84,
          "mode": "ATTRIBUTES",
          "byteStride": 8,
          "count": 8
        }
      }
    },
    {
      "buffer": 1,
      "byteOffset": 456,
      "byteLength": 96,
      "target": 34962,
      "byteStride": 8,
      "extensions": {
        "EXT_meshopt_compression": {
          "buffer": 0,
          "byteOffset": 492,
          "byteLength": 95,
          "mode": "ATTRIBUTES",
          "byteStride": 8,
          "count": 12
        }
      }
    }
  ],
  "buffers": [
    {
      "uri": "buffer-18c448e3a1f95551.bin",
      "byteLength": 588
    },
    {
      "byteLength": 552,
      "extensions": {
        "EXT_meshopt_compression": {
          "fallback": true
        }
      }
    }
  ],
  "materials": [
    {
      "name": "Molded plastic end",
      "pbrMetallicRoughness": {
        "baseColorFactor": [
          0.913098651791473,
          0.913098651791473,
          0.913098651791473,
          1
        ],
        "roughnessFactor": 0.68,
        "metallicFactor": 0
      },
      "normalTexture": {
        "index": 0,
        "scale": 0.9
      }
    },
    {
      "name": "Molded plastic face",
      "pbrMetallicRoughness": {
        "roughnessFactor": 0.68,
        "metallicFactor": 0
      },
      "normalTexture": {
        "index": 0,
        "scale": 0.9
      }
    },
    {
      "name": "Molded plastic side",
      "pbrMetallicRoughness": {
        "baseColorFactor": [
          0.7156935005005721,
          0.7156935005005721,
          0.7156935005005721,
          1
        ],
        "roughnessFactor": 0.72,
        "metallicFactor": 0
      },
      "normalTexture": {
        "index": 0,
        "scale": 0.9
      }
    }
  ],
  "meshes": [
    {
      "primitives": [
        {
          "attributes": {
            "NORMAL": 1,
            "TEXCOORD_0": 2,
            "POSITION": 9
          },
          "mode": 4,
          "material": 1,
          "indices": 0
        },
        {
          "attributes": {
            "NORMAL": 4,
            "TEXCOORD_0": 5,
            "POSITION": 10
          },
          "mode": 4,
          "material": 0,
          "indices": 3
        },
        {
          "attributes": {
            "NORMAL": 7,
            "TEXCOORD_0": 8,
            "POSITION": 11
          },
          "mode": 4,
          "material": 2,
          "indices": 6
        }
      ]
    }
  ],
  "nodes": [
    {
      "scale": [
        0.012500000186264515,
        0.012500000186264515,
        0.012500000186264515
      ],
      "mesh": 0
    }
  ],
  "scenes": [
    {
      "name": "road",
      "nodes": [
        0
      ]
    }
  ],
  "scene": 0,
  "extensionsUsed": [
    "EXT_meshopt_compression",
    "EXT_texture_avif",
    "KHR_mesh_quantization"
  ],
  "extensionsRequired": [
    "EXT_meshopt_compression",
    "EXT_texture_avif",
    "KHR_mesh_quantization"
  ],
  "images": [
    {
      "mimeType": "image/avif",
      "uri": "molded-plastic-normal.avif"
    }
  ],
  "textures": [
    {
      "sampler": 0,
      "extensions": {
        "EXT_texture_avif": {
          "source": 0
        }
      }
    }
  ],
  "samplers": [
    {
      "magFilter": 9729,
      "minFilter": 9987,
      "wrapS": 10497,
      "wrapT": 10497
    }
  ]
}
