{
  "asset": {
    "generator": "glTF-Transform v4.4.0",
    "version": "2.0"
  },
  "accessors": [
    {
      "type": "SCALAR",
      "componentType": 5123,
      "count": 120,
      "normalized": false,
      "byteOffset": 0,
      "bufferView": 0
    },
    {
      "type": "VEC3",
      "componentType": 5120,
      "count": 70,
      "normalized": true,
      "byteOffset": 0,
      "bufferView": 1
    },
    {
      "type": "VEC3",
      "componentType": 5122,
      "count": 70,
      "max": [
        27307,
        32767,
        27307
      ],
      "min": [
        -27307,
        -32767,
        -27307
      ],
      "normalized": true,
      "byteOffset": 0,
      "bufferView": 2
    }
  ],
  "bufferViews": [
    {
      "buffer": 1,
      "byteOffset": 0,
      "byteLength": 240,
      "target": 34963,
      "extensions": {
        "EXT_meshopt_compression": {
          "buffer": 0,
          "byteOffset": 0,
          "byteLength": 58,
          "mode": "TRIANGLES",
          "byteStride": 2,
          "count": 120
        }
      }
    },
    {
      "buffer": 1,
      "byteOffset": 240,
      "byteLength": 280,
      "target": 34962,
      "byteStride": 4,
      "extensions": {
        "EXT_meshopt_compression": {
          "buffer": 0,
          "byteOffset": 60,
          "byteLength": 95,
          "mode": "ATTRIBUTES",
          "filter": "OCTAHEDRAL",
          "byteStride": 4,
          "count": 70
        }
      }
    },
    {
      "buffer": 1,
      "byteOffset": 520,
      "byteLength": 560,
      "target": 34962,
      "byteStride": 8,
      "extensions": {
        "EXT_meshopt_compression": {
          "buffer": 0,
          "byteOffset": 156,
          "byteLength": 385,
          "mode": "ATTRIBUTES",
          "byteStride": 8,
          "count": 70
        }
      }
    }
  ],
  "buffers": [
    {
      "uri": "buffer-b90a4a13ec421c51.bin",
      "byteLength": 544
    },
    {
      "byteLength": 1080,
      "extensions": {
        "EXT_meshopt_compression": {
          "fallback": true
        }
      }
    }
  ],
  "materials": [
    {
      "pbrMetallicRoughness": {
        "baseColorFactor": [
          0.07036009568874305,
          0,
          0.22322795730611386,
          1
        ],
        "roughnessFactor": 0.28,
        "metallicFactor": 0
      },
      "extensions": {
        "KHR_materials_clearcoat": {
          "clearcoatFactor": 1,
          "clearcoatRoughnessFactor": 0.08
        },
        "KHR_materials_iridescence": {
          "iridescenceFactor": 0.9,
          "iridescenceIor": 1.8,
          "iridescenceThicknessMinimum": 120,
          "iridescenceThicknessMaximum": 720
        },
        "KHR_materials_specular": {
          "specularColorFactor": [
            0,
            0.9559733532482866,
            0.3231432091022285
          ]
        }
      }
    }
  ],
  "meshes": [
    {
      "primitives": [
        {
          "attributes": {
            "NORMAL": 1,
            "POSITION": 2
          },
          "mode": 4,
          "material": 0,
          "indices": 0
        }
      ]
    }
  ],
  "nodes": [
    {
      "translation": [
        0,
        0.014999999664723873,
        0
      ],
      "scale": [
        0.014999999664723873,
        0.014999999664723873,
        0.014999999664723873
      ],
      "mesh": 0
    }
  ],
  "scenes": [
    {
      "name": "robber",
      "nodes": [
        0
      ]
    }
  ],
  "scene": 0,
  "extensionsUsed": [
    "EXT_meshopt_compression",
    "KHR_materials_clearcoat",
    "KHR_materials_iridescence",
    "KHR_materials_specular",
    "KHR_mesh_quantization"
  ],
  "extensionsRequired": [
    "EXT_meshopt_compression",
    "KHR_mesh_quantization"
  ]
}
