{
  "asset": {
    "version": "2.0",
    "generator": "THREE.GLTFExporter r184"
  },
  "scenes": [
    {
      "name": "robber",
      "nodes": [
        0
      ]
    }
  ],
  "scene": 0,
  "nodes": [
    {
      "matrix": [
        0.75,
        0,
        0,
        0,
        0,
        0.75,
        0,
        0,
        0,
        0,
        0.75,
        0,
        0,
        0,
        0,
        1
      ],
      "children": [
        1,
        2
      ]
    },
    {
      "matrix": [
        1,
        0,
        0,
        0,
        0,
        1,
        0,
        0,
        0,
        0,
        1,
        0,
        0,
        0.0275,
        0,
        1
      ],
      "mesh": 0
    },
    {
      "matrix": [
        1,
        0,
        0,
        0,
        0,
        1,
        0,
        0,
        0,
        0,
        1,
        0,
        0,
        0.0503,
        0,
        1
      ],
      "mesh": 1
    }
  ],
  "bufferViews": [
    {
      "buffer": 0,
      "byteOffset": 0,
      "byteLength": 996,
      "target": 34962,
      "byteStride": 12
    },
    {
      "buffer": 0,
      "byteOffset": 996,
      "byteLength": 996,
      "target": 34962,
      "byteStride": 12
    },
    {
      "buffer": 0,
      "byteOffset": 1992,
      "byteLength": 664,
      "target": 34962,
      "byteStride": 8
    },
    {
      "buffer": 0,
      "byteOffset": 2656,
      "byteLength": 240,
      "target": 34963
    },
    {
      "buffer": 0,
      "byteOffset": 2896,
      "byteLength": 2652,
      "target": 34962,
      "byteStride": 12
    },
    {
      "buffer": 0,
      "byteOffset": 5548,
      "byteLength": 2652,
      "target": 34962,
      "byteStride": 12
    },
    {
      "buffer": 0,
      "byteOffset": 8200,
      "byteLength": 1768,
      "target": 34962,
      "byteStride": 8
    },
    {
      "buffer": 0,
      "byteOffset": 9968,
      "byteLength": 2112,
      "target": 34963
    }
  ],
  "buffers": [
    {
      "byteLength": 12080,
      "uri": "buffer-6aefc006a358f54e.bin"
    }
  ],
  "accessors": [
    {
      "bufferView": 0,
      "componentType": 5126,
      "count": 83,
      "max": [
        0.019999999552965164,
        0.027499999850988388,
        0.019999999552965164
      ],
      "min": [
        -0.019999999552965164,
        -0.027499999850988388,
        -0.019999999552965164
      ],
      "type": "VEC3"
    },
    {
      "bufferView": 1,
      "componentType": 5126,
      "count": 83,
      "max": [
        0.9397934079170227,
        0.3417430520057678,
        0.9397934079170227
      ],
      "min": [
        -0.9397934079170227,
        -1,
        -0.9397934079170227
      ],
      "type": "VEC3"
    },
    {
      "bufferView": 2,
      "componentType": 5126,
      "count": 83,
      "max": [
        1,
        1
      ],
      "min": [
        0,
        0
      ],
      "type": "VEC2"
    },
    {
      "bufferView": 3,
      "componentType": 5123,
      "count": 120,
      "max": [
        82
      ],
      "min": [
        1
      ],
      "type": "SCALAR"
    },
    {
      "bufferView": 4,
      "componentType": 5126,
      "count": 221,
      "max": [
        0.014000000432133675,
        0.014000000432133675,
        0.014000000432133675
      ],
      "min": [
        -0.014000000432133675,
        -0.014000000432133675,
        -0.014000000432133675
      ],
      "type": "VEC3"
    },
    {
      "bufferView": 5,
      "componentType": 5126,
      "count": 221,
      "max": [
        1,
        1,
        1
      ],
      "min": [
        -1,
        -1,
        -1
      ],
      "type": "VEC3"
    },
    {
      "bufferView": 6,
      "componentType": 5126,
      "count": 221,
      "max": [
        1.03125,
        1
      ],
      "min": [
        -0.03125,
        0
      ],
      "type": "VEC2"
    },
    {
      "bufferView": 7,
      "componentType": 5123,
      "count": 1056,
      "max": [
        220
      ],
      "min": [
        0
      ],
      "type": "SCALAR"
    }
  ],
  "materials": [
    {
      "pbrMetallicRoughness": {
        "baseColorFactor": [
          0.06480326668529614,
          0.04666508633021928,
          0.25818285291079235,
          1
        ],
        "metallicFactor": 0,
        "roughnessFactor": 0.72
      },
      "extensions": {
        "KHR_materials_clearcoat": {
          "clearcoatFactor": 0.25,
          "clearcoatRoughnessFactor": 0.5
        }
      }
    }
  ],
  "meshes": [
    {
      "primitives": [
        {
          "mode": 4,
          "attributes": {
            "POSITION": 0,
            "NORMAL": 1,
            "TEXCOORD_0": 2
          },
          "indices": 3,
          "material": 0
        }
      ]
    },
    {
      "primitives": [
        {
          "mode": 4,
          "attributes": {
            "POSITION": 4,
            "NORMAL": 5,
            "TEXCOORD_0": 6
          },
          "indices": 7,
          "material": 0
        }
      ]
    }
  ],
  "extensionsUsed": [
    "KHR_materials_clearcoat"
  ]
}
