{
  "asset": {
    "generator": "glTF-Transform v4.4.0",
    "version": "2.0"
  },
  "accessors": [
    {
      "type": "SCALAR",
      "componentType": 5123,
      "count": 504,
      "normalized": false,
      "byteOffset": 0,
      "bufferView": 0
    },
    {
      "type": "VEC3",
      "componentType": 5120,
      "count": 142,
      "normalized": true,
      "byteOffset": 0,
      "bufferView": 1
    },
    {
      "type": "VEC3",
      "componentType": 5122,
      "count": 142,
      "max": [
        19874,
        32767,
        20382
      ],
      "min": [
        -19874,
        -32767,
        -20382
      ],
      "normalized": true,
      "byteOffset": 0,
      "bufferView": 2
    }
  ],
  "bufferViews": [
    {
      "buffer": 1,
      "byteOffset": 0,
      "byteLength": 1008,
      "target": 34963,
      "extensions": {
        "EXT_meshopt_compression": {
          "buffer": 0,
          "byteOffset": 0,
          "byteLength": 224,
          "mode": "TRIANGLES",
          "byteStride": 2,
          "count": 504
        }
      }
    },
    {
      "buffer": 1,
      "byteOffset": 1008,
      "byteLength": 568,
      "target": 34962,
      "byteStride": 4,
      "extensions": {
        "EXT_meshopt_compression": {
          "buffer": 0,
          "byteOffset": 224,
          "byteLength": 289,
          "mode": "ATTRIBUTES",
          "filter": "OCTAHEDRAL",
          "byteStride": 4,
          "count": 142
        }
      }
    },
    {
      "buffer": 1,
      "byteOffset": 1576,
      "byteLength": 1136,
      "target": 34962,
      "byteStride": 8,
      "extensions": {
        "EXT_meshopt_compression": {
          "buffer": 0,
          "byteOffset": 516,
          "byteLength": 858,
          "mode": "ATTRIBUTES",
          "byteStride": 8,
          "count": 142
        }
      }
    }
  ],
  "buffers": [
    {
      "uri": "buffer-d3e0d46bc36b29a5.bin",
      "byteLength": 1376
    },
    {
      "byteLength": 2712,
      "extensions": {
        "EXT_meshopt_compression": {
          "fallback": true
        }
      }
    }
  ],
  "materials": [
    {
      "pbrMetallicRoughness": {
        "baseColorFactor": [
          0.07036009568874305,
          0,
          0.22322795730611386,
          1
        ],
        "roughnessFactor": 0.72,
        "metallicFactor": 0
      },
      "extensions": {
        "KHR_materials_clearcoat": {
          "clearcoatFactor": 0.25,
          "clearcoatRoughnessFactor": 0.5
        }
      }
    }
  ],
  "meshes": [
    {
      "primitives": [
        {
          "attributes": {
            "NORMAL": 1,
            "POSITION": 2
          },
          "mode": 4,
          "material": 0,
          "indices": 0
        }
      ]
    }
  ],
  "nodes": [
    {
      "translation": [
        0,
        0.024112500362098218,
        0
      ],
      "scale": [
        0.024112500250339508,
        0.024112500250339508,
        0.024112500250339508
      ],
      "mesh": 0
    }
  ],
  "scenes": [
    {
      "name": "robber",
      "nodes": [
        0
      ]
    }
  ],
  "scene": 0,
  "extensionsUsed": [
    "EXT_meshopt_compression",
    "KHR_materials_clearcoat",
    "KHR_mesh_quantization"
  ],
  "extensionsRequired": [
    "EXT_meshopt_compression",
    "KHR_mesh_quantization"
  ]
}
