{
  "asset": {
    "generator": "glTF-Transform v4.4.0",
    "version": "2.0"
  },
  "accessors": [
    {
      "type": "SCALAR",
      "componentType": 5123,
      "count": 114,
      "normalized": false,
      "byteOffset": 0,
      "bufferView": 0
    },
    {
      "type": "VEC3",
      "componentType": 5120,
      "count": 21,
      "normalized": true,
      "byteOffset": 0,
      "bufferView": 1
    },
    {
      "type": "SCALAR",
      "componentType": 5123,
      "count": 2400,
      "normalized": false,
      "byteOffset": 228,
      "bufferView": 0
    },
    {
      "type": "VEC3",
      "componentType": 5122,
      "count": 21,
      "max": [
        32767,
        240,
        32767
      ],
      "min": [
        -32767,
        -240,
        -32767
      ],
      "normalized": true,
      "byteOffset": 0,
      "bufferView": 2
    },
    {
      "type": "VEC3",
      "componentType": 5122,
      "count": 1600,
      "max": [
        32767,
        0,
        32767
      ],
      "min": [
        -32767,
        0,
        -32767
      ],
      "normalized": true,
      "byteOffset": 0,
      "bufferView": 3
    }
  ],
  "bufferViews": [
    {
      "buffer": 1,
      "byteOffset": 0,
      "byteLength": 5028,
      "target": 34963,
      "extensions": {
        "EXT_meshopt_compression": {
          "buffer": 0,
          "byteOffset": 0,
          "byteLength": 858,
          "mode": "TRIANGLES",
          "byteStride": 2,
          "count": 2514
        }
      }
    },
    {
      "buffer": 1,
      "byteOffset": 5028,
      "byteLength": 84,
      "target": 34962,
      "byteStride": 4,
      "extensions": {
        "EXT_meshopt_compression": {
          "buffer": 0,
          "byteOffset": 860,
          "byteLength": 83,
          "mode": "ATTRIBUTES",
          "filter": "OCTAHEDRAL",
          "byteStride": 4,
          "count": 21
        }
      }
    },
    {
      "buffer": 1,
      "byteOffset": 5112,
      "byteLength": 168,
      "target": 34962,
      "byteStride": 8,
      "extensions": {
        "EXT_meshopt_compression": {
          "buffer": 0,
          "byteOffset": 944,
          "byteLength": 122,
          "mode": "ATTRIBUTES",
          "byteStride": 8,
          "count": 21
        }
      }
    },
    {
      "buffer": 1,
      "byteOffset": 5280,
      "byteLength": 12800,
      "target": 34962,
      "byteStride": 8,
      "extensions": {
        "EXT_meshopt_compression": {
          "buffer": 0,
          "byteOffset": 1068,
          "byteLength": 5189,
          "mode": "ATTRIBUTES",
          "byteStride": 8,
          "count": 1600
        }
      }
    }
  ],
  "buffers": [
    {
      "uri": "buffer-580cb5f02ce52415.bin",
      "byteLength": 6260
    },
    {
      "byteLength": 18080,
      "extensions": {
        "EXT_meshopt_compression": {
          "fallback": true
        }
      }
    }
  ],
  "materials": [
    {
      "alphaMode": "BLEND",
      "pbrMetallicRoughness": {
        "baseColorFactor": [
          0.24228112245478564,
          0.6172065624120635,
          0.9559733532482866,
          0.34
        ],
        "roughnessFactor": 0.28,
        "metallicFactor": 0
      }
    },
    {
      "doubleSided": true,
      "pbrMetallicRoughness": {
        "baseColorFactor": [
          0,
          0,
          0,
          1
        ],
        "roughnessFactor": 0.9,
        "metallicFactor": 0
      },
      "extensions": {
        "KHR_materials_unlit": {}
      }
    }
  ],
  "meshes": [
    {
      "primitives": [
        {
          "attributes": {
            "NORMAL": 1,
            "POSITION": 3
          },
          "mode": 4,
          "material": 0,
          "indices": 0
        }
      ]
    },
    {
      "primitives": [
        {
          "attributes": {
            "POSITION": 4
          },
          "mode": 4,
          "material": 1,
          "indices": 2
        }
      ]
    }
  ],
  "nodes": [
    {
      "scale": [
        0.10249999910593033,
        0.10249999910593033,
        0.10249999910593033
      ],
      "mesh": 0
    },
    {
      "translation": [
        -0.0024549998342990875,
        -0.0006699999794363976,
        -0.0024549998342990875
      ],
      "scale": [
        0.10004499927163124,
        0.10004499927163124,
        0.10004499927163124
      ],
      "mesh": 1
    }
  ],
  "scenes": [
    {
      "name": "ruler",
      "nodes": [
        0,
        1
      ]
    }
  ],
  "scene": 0,
  "extensionsUsed": [
    "EXT_meshopt_compression",
    "KHR_materials_unlit",
    "KHR_mesh_quantization"
  ],
  "extensionsRequired": [
    "EXT_meshopt_compression",
    "KHR_mesh_quantization"
  ]
}
