{
  "asset": {
    "generator": "glTF-Transform v4.4.0",
    "version": "2.0"
  },
  "accessors": [
    {
      "type": "SCALAR",
      "componentType": 5123,
      "count": 18,
      "normalized": false,
      "byteOffset": 0,
      "bufferView": 0
    },
    {
      "type": "SCALAR",
      "componentType": 5123,
      "count": 234,
      "normalized": false,
      "byteOffset": 36,
      "bufferView": 0
    },
    {
      "type": "VEC3",
      "componentType": 5120,
      "count": 91,
      "normalized": true,
      "byteOffset": 0,
      "bufferView": 1
    },
    {
      "type": "VEC3",
      "componentType": 5122,
      "count": 7,
      "max": [
        28379,
        728,
        32767
      ],
      "min": [
        -28379,
        728,
        -32767
      ],
      "normalized": true,
      "byteOffset": 0,
      "bufferView": 2
    },
    {
      "type": "VEC2",
      "componentType": 5123,
      "count": 7,
      "normalized": true,
      "byteOffset": 0,
      "bufferView": 3
    },
    {
      "type": "VEC3",
      "componentType": 5122,
      "count": 91,
      "max": [
        28379,
        728,
        32767
      ],
      "min": [
        -28379,
        -728,
        -32767
      ],
      "normalized": true,
      "byteOffset": 0,
      "bufferView": 4
    }
  ],
  "bufferViews": [
    {
      "buffer": 1,
      "byteOffset": 0,
      "byteLength": 504,
      "target": 34963,
      "extensions": {
        "EXT_meshopt_compression": {
          "buffer": 0,
          "byteOffset": 0,
          "byteLength": 102,
          "mode": "TRIANGLES",
          "byteStride": 2,
          "count": 252
        }
      }
    },
    {
      "buffer": 1,
      "byteOffset": 504,
      "byteLength": 364,
      "target": 34962,
      "byteStride": 4,
      "extensions": {
        "EXT_meshopt_compression": {
          "buffer": 0,
          "byteOffset": 104,
          "byteLength": 139,
          "mode": "ATTRIBUTES",
          "filter": "OCTAHEDRAL",
          "byteStride": 4,
          "count": 91
        }
      }
    },
    {
      "buffer": 1,
      "byteOffset": 868,
      "byteLength": 56,
      "target": 34962,
      "byteStride": 8,
      "extensions": {
        "EXT_meshopt_compression": {
          "buffer": 0,
          "byteOffset": 244,
          "byteLength": 74,
          "mode": "ATTRIBUTES",
          "byteStride": 8,
          "count": 7
        }
      }
    },
    {
      "buffer": 1,
      "byteOffset": 924,
      "byteLength": 28,
      "target": 34962,
      "byteStride": 4,
      "extensions": {
        "EXT_meshopt_compression": {
          "buffer": 0,
          "byteOffset": 320,
          "byteLength": 71,
          "mode": "ATTRIBUTES",
          "byteStride": 4,
          "count": 7
        }
      }
    },
    {
      "buffer": 1,
      "byteOffset": 952,
      "byteLength": 728,
      "target": 34962,
      "byteStride": 8,
      "extensions": {
        "EXT_meshopt_compression": {
          "buffer": 0,
          "byteOffset": 392,
          "byteLength": 436,
          "mode": "ATTRIBUTES",
          "byteStride": 8,
          "count": 91
        }
      }
    }
  ],
  "samplers": [
    {
      "magFilter": 9729,
      "minFilter": 9987,
      "wrapS": 33071,
      "wrapT": 33071
    }
  ],
  "textures": [
    {
      "sampler": 0,
      "extensions": {
        "EXT_texture_avif": {
          "source": 0
        }
      }
    }
  ],
  "images": [
    {
      "mimeType": "image/avif",
      "uri": "tile-brick.avif"
    }
  ],
  "buffers": [
    {
      "uri": "buffer-2cb1b0281ee1baa3.bin",
      "byteLength": 828
    },
    {
      "byteLength": 1680,
      "extensions": {
        "EXT_meshopt_compression": {
          "fallback": true
        }
      }
    }
  ],
  "materials": [
    {
      "name": "Tile brick face",
      "doubleSided": true,
      "pbrMetallicRoughness": {
        "roughnessFactor": 0.9,
        "metallicFactor": 0,
        "baseColorTexture": {
          "index": 0
        }
      },
      "extensions": {
        "KHR_materials_unlit": {}
      }
    },
    {
      "name": "Tile brick face side",
      "pbrMetallicRoughness": {
        "baseColorFactor": [
          0.9559733532482866,
          0.8713671191959567,
          0.7912979403281553,
          1
        ],
        "roughnessFactor": 0.85,
        "metallicFactor": 0.02
      }
    }
  ],
  "meshes": [
    {
      "primitives": [
        {
          "attributes": {
            "POSITION": 3,
            "TEXCOORD_0": 4
          },
          "mode": 4,
          "material": 0,
          "indices": 0
        },
        {
          "attributes": {
            "NORMAL": 2,
            "POSITION": 5
          },
          "mode": 4,
          "material": 1,
          "indices": 1
        }
      ]
    }
  ],
  "nodes": [
    {
      "scale": [
        0.04500000178813934,
        0.04500000178813934,
        0.04500000178813934
      ],
      "mesh": 0
    }
  ],
  "scenes": [
    {
      "name": "tile-brick",
      "nodes": [
        0
      ]
    }
  ],
  "scene": 0,
  "extensionsUsed": [
    "EXT_meshopt_compression",
    "EXT_texture_avif",
    "KHR_materials_unlit",
    "KHR_mesh_quantization"
  ],
  "extensionsRequired": [
    "EXT_meshopt_compression",
    "EXT_texture_avif",
    "KHR_mesh_quantization"
  ]
}
