<svg xmlns="http://www.w3.org/2000/svg" width="63mm" height="88mm" viewBox="0 0 63 88"><title>knight</title><rect width="63" height="88" fill="oldlace"></rect><g fill="black"><use href="#glyph0" transform="translate(22.7784 15.9) scale(4.6)"></use><use href="#glyph1" transform="translate(25.6856 15.9) scale(4.6)"></use><use href="#glyph2" transform="translate(28.5928 15.9) scale(4.6)"></use><use href="#glyph3" transform="translate(31.5 15.9) scale(4.6)"></use><use href="#glyph4" transform="translate(34.4072 15.9) scale(4.6)"></use><use href="#glyph5" transform="translate(37.3144 15.9) scale(4.6)"></use></g><g fill="black"><use href="#glyph6" transform="translate(18.2912 34.12969) scale(3.8)"></use><use href="#glyph7" transform="translate(20.6928 34.12969) scale(3.8)"></use><use href="#glyph8" transform="translate(23.0944 34.12969) scale(3.8)"></use><use href="#glyph9" transform="translate(25.496 34.12969) scale(3.8)"></use><use href="#glyph10" transform="translate(30.2992 34.12969) scale(3.8)"></use><use href="#glyph7" transform="translate(32.7008 34.12969) scale(3.8)"></use><use href="#glyph11" transform="translate(35.1024 34.12969) scale(3.8)"></use><use href="#glyph11" transform="translate(37.504 34.12969) scale(3.8)"></use><use href="#glyph9" transform="translate(39.9056 34.12969) scale(3.8)"></use><use href="#glyph10" transform="translate(42.3072 34.12969) scale(3.8)"></use></g><g fill="black"><use href="#glyph12" transform="translate(17.0904 41.12969) scale(3.8)"></use><use href="#glyph13" transform="translate(19.492 41.12969) scale(3.8)"></use><use href="#glyph9" transform="translate(21.8936 41.12969) scale(3.8)"></use><use href="#glyph14" transform="translate(24.2952 41.12969) scale(3.8)"></use><use href="#glyph15" transform="translate(26.6968 41.12969) scale(3.8)"></use><use href="#glyph16" transform="translate(31.5 41.12969) scale(3.8)"></use><use href="#glyph17" transform="translate(36.3032 41.12969) scale(3.8)"></use><use href="#glyph14" transform="translate(38.7048 41.12969) scale(3.8)"></use><use href="#glyph10" transform="translate(41.1064 41.12969) scale(3.8)"></use><use href="#glyph18" transform="translate(43.508 41.12969) scale(3.8)"></use></g><g fill="black"><use href="#glyph19" transform="translate(15.8896 48.12969) scale(3.8)"></use><use href="#glyph10" transform="translate(18.2912 48.12969) scale(3.8)"></use><use href="#glyph7" transform="translate(20.6928 48.12969) scale(3.8)"></use><use href="#glyph6" transform="translate(23.0944 48.12969) scale(3.8)"></use><use href="#glyph20" transform="translate(27.8976 48.12969) scale(3.8)"></use><use href="#glyph9" transform="translate(30.2992 48.12969) scale(3.8)"></use><use href="#glyph21" transform="translate(32.7008 48.12969) scale(3.8)"></use><use href="#glyph22" transform="translate(35.1024 48.12969) scale(3.8)"></use><use href="#glyph23" transform="translate(37.504 48.12969) scale(3.8)"></use><use href="#glyph11" transform="translate(39.9056 48.12969) scale(3.8)"></use><use href="#glyph7" transform="translate(42.3072 48.12969) scale(3.8)"></use><use href="#glyph10" transform="translate(44.7088 48.12969) scale(3.8)"></use></g><defs><path id="glyph0" d="M0.19900 0L0.06600 0L0.06600-0.66800L0.19900-0.66800L0.19900-0.38300L0.44100-0.66800L0.59800-0.66800L0.35800-0.38600L0.61300 0L0.45300 0L0.26900-0.28000L0.19900-0.20000L0.19900 0Z"></path><path id="glyph1" d="M0.18200 0L0.05800 0L0.05800-0.66800L0.22200-0.66800L0.44600-0.18200L0.45000-0.18200L0.45000-0.66800L0.57400-0.66800L0.57400 0L0.41000 0L0.18600-0.48600L0.18200-0.48600L0.18200 0Z"></path><path id="glyph2" d="M0.51600 0L0.11600 0L0.11600-0.10600L0.24300-0.10600L0.24300-0.56200L0.11600-0.56200L0.11600-0.66800L0.51600-0.66800L0.51600-0.56200L0.38900-0.56200L0.38900-0.10600L0.51600-0.10600L0.51600 0Z"></path><path id="glyph3" d="M0.30600 0.01200L0.30600 0.01200Q0.22300 0.01200 0.16300-0.03100Q0.10300-0.07400 0.07000-0.15200Q0.03700-0.23000 0.03700-0.33600L0.03700-0.33600Q0.03700-0.44100 0.07300-0.51800Q0.10900-0.59500 0.17400-0.63750Q0.23900-0.68000 0.32400-0.68000L0.32400-0.68000Q0.40000-0.68000 0.46450-0.64200Q0.52900-0.60400 0.55800-0.52800L0.55800-0.52800L0.44400-0.48600Q0.43100-0.51900 0.40250-0.54150Q0.37400-0.56400 0.32700-0.56400L0.32700-0.56400Q0.28400-0.56400 0.24950-0.53900Q0.21500-0.51400 0.19500-0.46350Q0.17500-0.41300 0.17500-0.33600L0.17500-0.33600Q0.17500-0.25900 0.19450-0.20750Q0.21400-0.15600 0.25000-0.13000Q0.28600-0.10400 0.33300-0.10400L0.33300-0.10400Q0.35500-0.10400 0.37750-0.11100Q0.40000-0.11800 0.41800-0.13300Q0.43600-0.14800 0.44700-0.17450Q0.45800-0.20100 0.45800-0.24000L0.45800-0.24000L0.45800-0.26200L0.32300-0.26200L0.32300-0.37200L0.58000-0.37200L0.58000 0L0.49800 0L0.47800-0.07700Q0.46100-0.04700 0.43350-0.02750Q0.40600-0.00800 0.37350 0.00200Q0.34100 0.01200 0.30600 0.01200Z"></path><path id="glyph4" d="M0.19900 0L0.05400 0L0.05400-0.66800L0.19900-0.66800L0.19900-0.40700L0.43300-0.40700L0.43300-0.66800L0.57800-0.66800L0.57800 0L0.43300 0L0.43300-0.28000L0.19900-0.28000L0.19900 0Z"></path><path id="glyph5" d="M0.38900 0L0.24300 0L0.24300-0.54000L0.05200-0.54000L0.05200-0.66800L0.58000-0.66800L0.58000-0.54000L0.38900-0.54000L0.38900 0Z"></path><path id="glyph6" d="M0.12100 0L0.04600 0L0.04600-0.66800L0.17300-0.66800L0.31600-0.11400L0.32000-0.11400L0.46100-0.66800L0.58600-0.66800L0.58600 0L0.51000 0L0.51000-0.57800L0.50600-0.57800L0.35600 0L0.27700 0L0.12500-0.57800L0.12100-0.57800L0.12100 0Z"></path><path id="glyph7" d="M0.31600 0.01200L0.31600 0.01200Q0.22900 0.01200 0.16700-0.03200Q0.10500-0.07600 0.07250-0.15400Q0.04000-0.23200 0.04000-0.33400L0.04000-0.33400Q0.04000-0.43600 0.07250-0.51400Q0.10500-0.59200 0.16700-0.63600Q0.22900-0.68000 0.31600-0.68000L0.31600-0.68000Q0.40300-0.68000 0.46500-0.63600Q0.52700-0.59200 0.55950-0.51400Q0.59200-0.43600 0.59200-0.33400L0.59200-0.33400Q0.59200-0.23200 0.55950-0.15400Q0.52700-0.07600 0.46500-0.03200Q0.40300 0.01200 0.31600 0.01200ZM0.31600-0.06100L0.31600-0.06100Q0.37100-0.06100 0.41350-0.09200Q0.45600-0.12300 0.48050-0.18400Q0.50500-0.24500 0.50500-0.33400L0.50500-0.33400Q0.50500-0.42300 0.48050-0.48400Q0.45600-0.54500 0.41350-0.57600Q0.37100-0.60700 0.31600-0.60700L0.31600-0.60700Q0.26200-0.60700 0.21900-0.57600Q0.17600-0.54500 0.15150-0.48400Q0.12700-0.42300 0.12700-0.33400L0.12700-0.33400Q0.12700-0.24500 0.15150-0.18400Q0.17600-0.12300 0.21900-0.09200Q0.26200-0.06100 0.31600-0.06100Z"></path><path id="glyph8" d="M0.36200 0L0.26900 0L0.04400-0.66800L0.13200-0.66800L0.31500-0.09800L0.31900-0.09800L0.50300-0.66800L0.58800-0.66800L0.36200 0Z"></path><path id="glyph9" d="M0.54500 0L0.12300 0L0.12300-0.66800L0.54100-0.66800L0.54100-0.59100L0.21100-0.59100L0.21100-0.38200L0.45900-0.38200L0.45900-0.30600L0.21100-0.30600L0.21100-0.07700L0.54500-0.07700L0.54500 0Z"></path><path id="glyph10" d="M0.18300 0L0.09900 0L0.09900-0.66800L0.32100-0.66800Q0.39000-0.66800 0.44250-0.64700Q0.49500-0.62600 0.52550-0.58350Q0.55600-0.54100 0.55600-0.47300L0.55600-0.47300Q0.55600-0.38700 0.50500-0.34150Q0.45400-0.29600 0.37300-0.28600L0.37300-0.28600L0.57300 0L0.47100 0L0.28300-0.27800L0.18300-0.27800L0.18300 0ZM0.18300-0.59600L0.18300-0.35000L0.31800-0.35000Q0.36200-0.35000 0.39600-0.36250Q0.43000-0.37500 0.44950-0.40200Q0.46900-0.42900 0.46900-0.47300L0.46900-0.47300Q0.46900-0.51700 0.44950-0.54400Q0.43000-0.57100 0.39600-0.58350Q0.36200-0.59600 0.31800-0.59600L0.31800-0.59600L0.18300-0.59600Z"></path><path id="glyph11" d="M0.35900 0L0.10200 0L0.10200-0.66800L0.34100-0.66800Q0.41000-0.66800 0.45450-0.64650Q0.49900-0.62500 0.52150-0.58600Q0.54400-0.54700 0.54400-0.49600L0.54400-0.49600Q0.54400-0.46700 0.53450-0.43850Q0.52500-0.41000 0.50550-0.38700Q0.48600-0.36400 0.45500-0.35100L0.45500-0.35100Q0.49200-0.33800 0.51800-0.31550Q0.54400-0.29300 0.55750-0.26100Q0.57100-0.22900 0.57100-0.18800L0.57100-0.18800Q0.57100-0.13300 0.54800-0.09050Q0.52500-0.04800 0.47800-0.02400Q0.43100 0 0.35900 0L0.35900 0ZM0.18600-0.30900L0.18600-0.07200L0.35200-0.07200Q0.39900-0.07200 0.42850-0.08850Q0.45800-0.10500 0.47150-0.13250Q0.48500-0.16000 0.48500-0.19300L0.48500-0.19300Q0.48500-0.24200 0.45250-0.27550Q0.42000-0.30900 0.35100-0.30900L0.35100-0.30900L0.18600-0.30900ZM0.18600-0.59600L0.18600-0.38100L0.34600-0.38100Q0.40500-0.38100 0.43200-0.41100Q0.45900-0.44100 0.45900-0.48600L0.45900-0.48600Q0.45900-0.53200 0.42900-0.56400Q0.39900-0.59600 0.33500-0.59600L0.33500-0.59600L0.18600-0.59600Z"></path><path id="glyph12" d="M0.31600 0.01200L0.31600 0.01200Q0.26300 0.01200 0.21100-0.00500Q0.15900-0.02200 0.12000-0.05700Q0.08100-0.09200 0.06300-0.14500L0.06300-0.14500L0.14600-0.17600Q0.15700-0.13800 0.18350-0.11200Q0.21000-0.08600 0.24500-0.07350Q0.28000-0.06100 0.31800-0.06100L0.31800-0.06100Q0.36200-0.06100 0.39850-0.07500Q0.43500-0.08900 0.45750-0.11700Q0.48000-0.14500 0.48000-0.18600L0.48000-0.18600Q0.48000-0.22800 0.44950-0.25450Q0.41900-0.28100 0.34000-0.29900L0.34000-0.29900L0.25700-0.31900Q0.20800-0.33100 0.16750-0.35150Q0.12700-0.37200 0.10300-0.40700Q0.07900-0.44200 0.07900-0.49500L0.07900-0.49500Q0.07900-0.54900 0.11100-0.59100Q0.14300-0.63300 0.19700-0.65650Q0.25100-0.68000 0.31800-0.68000L0.31800-0.68000Q0.36500-0.68000 0.40900-0.66700Q0.45300-0.65400 0.48900-0.62650Q0.52500-0.59900 0.54500-0.55600L0.54500-0.55600L0.46300-0.52500Q0.44900-0.55200 0.42550-0.57000Q0.40200-0.58800 0.37300-0.59750Q0.34400-0.60700 0.31500-0.60700L0.31500-0.60700Q0.27600-0.60700 0.24200-0.59500Q0.20800-0.58300 0.18800-0.55850Q0.16800-0.53400 0.16800-0.49700L0.16800-0.49700Q0.16800-0.45700 0.19950-0.43350Q0.23100-0.41000 0.27600-0.39900L0.27600-0.39900L0.36300-0.37700Q0.42400-0.36300 0.47050-0.34100Q0.51700-0.31900 0.54300-0.28350Q0.56900-0.24800 0.56900-0.19000L0.56900-0.19000Q0.56900-0.12800 0.53400-0.08300Q0.49900-0.03800 0.44150-0.01300Q0.38400 0.01200 0.31600 0.01200Z"></path><path id="glyph13" d="M0.36000 0L0.27200 0L0.27200-0.59100L0.05900-0.59100L0.05900-0.66800L0.57300-0.66800L0.57300-0.59100L0.36000-0.59100L0.36000 0Z"></path><path id="glyph14" d="M0.11600 0L0.03400 0L0.27000-0.66800L0.36300-0.66800L0.59800 0L0.51300 0L0.46100-0.15300L0.16900-0.15300L0.11600 0ZM0.31300-0.57700L0.19100-0.22600L0.43800-0.22600L0.31700-0.57700L0.31300-0.57700Z"></path><path id="glyph15" d="M0.58300 0L0.13400 0L0.13400-0.66800L0.22200-0.66800L0.22200-0.07700L0.58300-0.07700L0.58300 0Z"></path><path id="glyph16" d="M0.52500 0L0.11600 0L0.11600-0.07200L0.28700-0.07200L0.28700-0.50700L0.11400-0.50700L0.11400-0.57200Q0.17200-0.57200 0.21000-0.57900Q0.24800-0.58600 0.27250-0.60650Q0.29700-0.62700 0.31100-0.66800L0.31100-0.66800L0.37100-0.66800L0.37100-0.07200L0.52500-0.07200L0.52500 0Z"></path><path id="glyph17" d="M0.33500 0.01200L0.33500 0.01200Q0.25000 0.01200 0.18650-0.03250Q0.12300-0.07700 0.08800-0.15500Q0.05300-0.23300 0.05300-0.33500L0.05300-0.33500Q0.05300-0.43700 0.08950-0.51450Q0.12600-0.59200 0.19100-0.63600Q0.25600-0.68000 0.34000-0.68000L0.34000-0.68000Q0.41600-0.68000 0.47950-0.64100Q0.54300-0.60200 0.57500-0.52800L0.57500-0.52800L0.50200-0.50000Q0.48200-0.54700 0.44100-0.57700Q0.40000-0.60700 0.34000-0.60700L0.34000-0.60700Q0.28700-0.60700 0.24150-0.57600Q0.19600-0.54500 0.16850-0.48450Q0.14100-0.42400 0.14100-0.33500L0.14100-0.33500Q0.14100-0.24600 0.16850-0.18500Q0.19600-0.12400 0.24200-0.09250Q0.28800-0.06100 0.34200-0.06100L0.34200-0.06100Q0.38100-0.06100 0.41250-0.07400Q0.44400-0.08700 0.46750-0.11150Q0.49100-0.13600 0.50600-0.16700L0.50600-0.16700L0.57800-0.14000Q0.54300-0.06500 0.48050-0.02650Q0.41800 0.01200 0.33500 0.01200Z"></path><path id="glyph18" d="M0.24600 0L0.07300 0L0.07300-0.66800L0.24600-0.66800Q0.32100-0.66800 0.38450-0.65100Q0.44800-0.63400 0.49450-0.59450Q0.54100-0.55500 0.56700-0.49150Q0.59300-0.42800 0.59300-0.33500L0.59300-0.33500Q0.59300-0.24300 0.56700-0.17850Q0.54100-0.11400 0.49450-0.07500Q0.44800-0.03600 0.38450-0.01800Q0.32100 0 0.24600 0L0.24600 0ZM0.15700-0.59500L0.15700-0.07300L0.23900-0.07300Q0.29000-0.07300 0.33800-0.08350Q0.38600-0.09400 0.42400-0.12150Q0.46200-0.14900 0.48450-0.20050Q0.50700-0.25200 0.50700-0.33500L0.50700-0.33500Q0.50700-0.41900 0.48450-0.47050Q0.46200-0.52200 0.42400-0.54850Q0.38600-0.57500 0.33800-0.58500Q0.29000-0.59500 0.23900-0.59500L0.23900-0.59500L0.15700-0.59500Z"></path><path id="glyph19" d="M0.21300 0L0.12500 0L0.12500-0.66800L0.54500-0.66800L0.54500-0.59100L0.21300-0.59100L0.21300-0.37200L0.54100-0.37200L0.54100-0.29500L0.21300-0.29500L0.21300 0Z"></path><path id="glyph20" d="M0.15600 0L0.07500 0L0.07500-0.66800L0.19100-0.66800L0.47200-0.10500L0.47600-0.10500L0.47600-0.66800L0.55700-0.66800L0.55700 0L0.44100 0L0.16000-0.56300L0.15600-0.56300L0.15600 0Z"></path><path id="glyph21" d="M0.49900 0L0.13300 0L0.13300-0.06500L0.27200-0.06500L0.27200-0.60300L0.13300-0.60300L0.13300-0.66800L0.49900-0.66800L0.49900-0.60300L0.36000-0.60300L0.36000-0.06500L0.49900-0.06500L0.49900 0Z"></path><path id="glyph22" d="M0.31700 0.01200L0.31700 0.01200Q0.23100 0.01200 0.16850-0.03250Q0.10600-0.07700 0.07300-0.15500Q0.04000-0.23300 0.04000-0.33500L0.04000-0.33500Q0.04000-0.43900 0.07500-0.51650Q0.11000-0.59400 0.17400-0.63700Q0.23800-0.68000 0.32500-0.68000L0.32500-0.68000Q0.40100-0.68000 0.46450-0.64150Q0.52800-0.60300 0.55800-0.52600L0.55800-0.52600L0.48500-0.49900Q0.46600-0.54800 0.42550-0.57750Q0.38500-0.60700 0.32400-0.60700L0.32400-0.60700Q0.26900-0.60700 0.22400-0.57650Q0.17900-0.54600 0.15250-0.48550Q0.12600-0.42500 0.12600-0.33500L0.12600-0.33500Q0.12600-0.24800 0.15200-0.18650Q0.17800-0.12500 0.22350-0.09300Q0.26900-0.06100 0.32600-0.06100L0.32600-0.06100Q0.35200-0.06100 0.38250-0.06950Q0.41300-0.07800 0.44000-0.09850Q0.46700-0.11900 0.48400-0.15600Q0.50100-0.19300 0.50100-0.24800L0.50100-0.24800L0.50100-0.27300L0.32400-0.27300L0.32400-0.34300L0.57900-0.34300L0.57900 0L0.52400 0L0.50800-0.09000Q0.48700-0.05400 0.45500-0.03150Q0.42300-0.00900 0.38700 0.00150Q0.35100 0.01200 0.31700 0.01200Z"></path><path id="glyph23" d="M0.14900 0L0.06100 0L0.06100-0.66800L0.14900-0.66800L0.14900-0.38300L0.48300-0.38300L0.48300-0.66800L0.57100-0.66800L0.57100 0L0.48300 0L0.48300-0.30600L0.14900-0.30600L0.14900 0Z"></path></defs></svg>
