{"asset":{"version":"2.0","generator":"THREE.GLTFExporter r184"},"scenes":[{"name":"robber","nodes":[0]}],"scene":0,"nodes":[{"mesh":0}],"bufferViews":[{"buffer":0,"byteOffset":0,"byteLength":600,"target":34962,"byteStride":12},{"buffer":0,"byteOffset":600,"byteLength":600,"target":34962,"byteStride":12},{"buffer":0,"byteOffset":1200,"byteLength":192,"target":34963}],"buffers":[{"byteLength":1392,"uri":"robber.bin"}],"accessors":[{"bufferView":0,"componentType":5126,"count":50,"max":[0.012500000186264515,0.029999999329447746,0.012500000186264515],"min":[-0.012500000186264515,0,-0.012500000186264515],"type":"VEC3"},{"bufferView":1,"componentType":5126,"count":50,"max":[0.986393928527832,1,0.986393928527832],"min":[-0.986393928527832,-1,-0.986393928527832],"type":"VEC3"},{"bufferView":2,"componentType":5123,"count":96,"max":[49],"min":[0],"type":"SCALAR"}],"materials":[{"pbrMetallicRoughness":{"baseColorFactor":[0.07036009568874305,0,0.22322795730611386,1],"metallicFactor":0,"roughnessFactor":0.28},"extensions":{"KHR_materials_specular":{"specularFactor":1,"specularColorFactor":[0,0.9559733532482866,0.3231432091022285]},"KHR_materials_clearcoat":{"clearcoatFactor":1,"clearcoatRoughnessFactor":0.08},"KHR_materials_iridescence":{"iridescenceFactor":0.9,"iridescenceIor":1.8,"iridescenceThicknessMinimum":120,"iridescenceThicknessMaximum":720}}}],"meshes":[{"primitives":[{"mode":4,"attributes":{"POSITION":0,"NORMAL":1},"indices":2,"material":0}]}],"extensionsUsed":["KHR_materials_specular","KHR_materials_clearcoat","KHR_materials_iridescence"]}
